<?xml version="1.0" encoding="UTF-8" standalone="no"?>
<!DOCTYPE svg PUBLIC "-//W3C//DTD SVG 1.1//EN" "http://www.w3.org/Graphics/SVG/1.1/DTD/svg11.dtd">
<svg width="100%" height="100%" viewBox="0 0 24 36" version="1.1" xmlns="http://www.w3.org/2000/svg" xmlns:xlink="http://www.w3.org/1999/xlink" xml:space="preserve" xmlns:serif="http://www.serif.com/" style="fill-rule:evenodd;clip-rule:evenodd;stroke-linejoin:round;stroke-miterlimit:2;fill:currentColor;">
    <g transform="matrix(1,0,0,1,-392,-453)">
        <g transform="matrix(1.41176,0,0,1.41176,-160,-192.882)">
            <path d="M392.889,466L392.889,464.111C392.889,460.462 395.851,457.5 399.5,457.5C403.149,457.5 406.111,460.462 406.111,464.111L406.111,466C407.154,466 408,466.846 408,467.889L408,481.111C408,482.154 407.154,483 406.111,483L392.889,483C391.846,483 391,482.154 391,481.111L391,467.889C391,466.846 391.846,466 392.889,466ZM403.278,466L403.278,464.111C403.278,462.026 401.585,460.333 399.5,460.333C397.415,460.333 395.722,462.026 395.722,464.111L395.722,466L403.278,466ZM398.304,474.242L398.304,476.771C398.304,477.342 398.767,477.806 399.338,477.806C400.088,477.806 400.696,477.197 400.696,476.448L400.696,474.242C401.411,473.829 401.893,473.055 401.893,472.17C401.893,470.85 400.821,469.778 399.5,469.778C398.179,469.778 397.107,470.85 397.107,472.17C397.107,473.055 397.589,473.829 398.304,474.242Z"/>
        </g>
    </g>
</svg>
